<mxfile host="65bd71144e">
    <diagram id="Akl7mnNQ48t79fB7gW_R" name="Page-1">
        <mxGraphModel dx="246" dy="614" grid="1" gridSize="10" guides="1" tooltips="1" connect="1" arrows="1" fold="1" page="1" pageScale="1" pageWidth="1169" pageHeight="827" math="0" shadow="0">
            <root>
                <mxCell id="0"/>
                <mxCell id="1" parent="0"/>
                <mxCell id="5" value="" style="group" parent="1" vertex="1" connectable="0">
                    <mxGeometry x="80" y="560" width="160" height="120" as="geometry"/>
                </mxCell>
                <mxCell id="lKYiRNZ8xfTI3IJfdv-n-27" value="&lt;font style=&quot;font-size: 18px&quot;&gt;APP&lt;br&gt;&lt;/font&gt;" style="rounded=0;whiteSpace=wrap;html=1;" parent="5" vertex="1">
                    <mxGeometry x="40" width="120" height="40" as="geometry"/>
                </mxCell>
                <mxCell id="lKYiRNZ8xfTI3IJfdv-n-29" value="&lt;font style=&quot;font-size: 18px&quot;&gt;PHY&lt;/font&gt;" style="rounded=0;whiteSpace=wrap;html=1;" parent="5" vertex="1">
                    <mxGeometry x="40" y="80" width="120" height="40" as="geometry"/>
                </mxCell>
                <mxCell id="lKYiRNZ8xfTI3IJfdv-n-30" value="&lt;h2 style=&quot;line-height: 1.2 ; font-size: 16px&quot;&gt;主机&lt;/h2&gt;&lt;h2 style=&quot;line-height: 1.2 ; font-size: 16px&quot;&gt;&lt;b&gt;1&lt;/b&gt;&lt;/h2&gt;" style="rounded=0;whiteSpace=wrap;html=1;horizontal=1;verticalAlign=middle;" parent="5" vertex="1">
                    <mxGeometry width="40" height="120" as="geometry"/>
                </mxCell>
                <mxCell id="lKYiRNZ8xfTI3IJfdv-n-31" value="NET" style="rounded=0;whiteSpace=wrap;html=1;fontFamily=Helvetica;fontSize=18;gradientColor=none;verticalAlign=middle;" parent="5" vertex="1">
                    <mxGeometry x="40" y="40" width="120" height="40" as="geometry"/>
                </mxCell>
                <mxCell id="6" value="" style="group" parent="1" vertex="1" connectable="0">
                    <mxGeometry x="280" y="560" width="160" height="120" as="geometry"/>
                </mxCell>
                <mxCell id="7" value="&lt;font style=&quot;font-size: 18px&quot;&gt;APP&lt;br&gt;&lt;/font&gt;" style="rounded=0;whiteSpace=wrap;html=1;" parent="6" vertex="1">
                    <mxGeometry x="40" width="120" height="40" as="geometry"/>
                </mxCell>
                <mxCell id="8" value="&lt;font style=&quot;font-size: 18px&quot;&gt;PHY&lt;/font&gt;" style="rounded=0;whiteSpace=wrap;html=1;" parent="6" vertex="1">
                    <mxGeometry x="40" y="80" width="120" height="40" as="geometry"/>
                </mxCell>
                <mxCell id="9" value="&lt;h2 style=&quot;line-height: 1.2 ; font-size: 16px&quot;&gt;主机&lt;/h2&gt;&lt;h2 style=&quot;line-height: 1.2 ; font-size: 16px&quot;&gt;2&lt;/h2&gt;" style="rounded=0;whiteSpace=wrap;html=1;horizontal=1;verticalAlign=middle;" parent="6" vertex="1">
                    <mxGeometry width="40" height="120" as="geometry"/>
                </mxCell>
                <mxCell id="10" value="NET" style="rounded=0;whiteSpace=wrap;html=1;fontFamily=Helvetica;fontSize=18;gradientColor=none;verticalAlign=middle;" parent="6" vertex="1">
                    <mxGeometry x="40" y="40" width="120" height="40" as="geometry"/>
                </mxCell>
                <mxCell id="11" value="" style="group" parent="1" vertex="1" connectable="0">
                    <mxGeometry x="480" y="560" width="160" height="120" as="geometry"/>
                </mxCell>
                <mxCell id="12" value="&lt;font style=&quot;font-size: 18px&quot;&gt;APP&lt;br&gt;&lt;/font&gt;" style="rounded=0;whiteSpace=wrap;html=1;" parent="11" vertex="1">
                    <mxGeometry x="40" width="120" height="40" as="geometry"/>
                </mxCell>
                <mxCell id="13" value="&lt;font style=&quot;font-size: 18px&quot;&gt;PHY&lt;/font&gt;" style="rounded=0;whiteSpace=wrap;html=1;" parent="11" vertex="1">
                    <mxGeometry x="40" y="80" width="120" height="40" as="geometry"/>
                </mxCell>
                <mxCell id="14" value="&lt;h2 style=&quot;line-height: 1.2 ; font-size: 16px&quot;&gt;主机&lt;/h2&gt;&lt;h2 style=&quot;line-height: 1.2 ; font-size: 16px&quot;&gt;3&lt;/h2&gt;" style="rounded=0;whiteSpace=wrap;html=1;horizontal=1;verticalAlign=middle;" parent="11" vertex="1">
                    <mxGeometry width="40" height="120" as="geometry"/>
                </mxCell>
                <mxCell id="15" value="NET" style="rounded=0;whiteSpace=wrap;html=1;fontFamily=Helvetica;fontSize=18;gradientColor=none;verticalAlign=middle;" parent="11" vertex="1">
                    <mxGeometry x="40" y="40" width="120" height="40" as="geometry"/>
                </mxCell>
                <mxCell id="16" value="" style="group" parent="1" vertex="1" connectable="0">
                    <mxGeometry x="680" y="560" width="160" height="120" as="geometry"/>
                </mxCell>
                <mxCell id="17" value="&lt;font style=&quot;font-size: 18px&quot;&gt;APP&lt;br&gt;&lt;/font&gt;" style="rounded=0;whiteSpace=wrap;html=1;" parent="16" vertex="1">
                    <mxGeometry x="40" width="120" height="40" as="geometry"/>
                </mxCell>
                <mxCell id="18" value="&lt;font style=&quot;font-size: 18px&quot;&gt;PHY&lt;/font&gt;" style="rounded=0;whiteSpace=wrap;html=1;" parent="16" vertex="1">
                    <mxGeometry x="40" y="80" width="120" height="40" as="geometry"/>
                </mxCell>
                <mxCell id="19" value="&lt;h2 style=&quot;line-height: 1.2 ; font-size: 16px&quot;&gt;主机&lt;/h2&gt;&lt;h2 style=&quot;line-height: 1.2 ; font-size: 16px&quot;&gt;&lt;font style=&quot;font-size: 16px&quot;&gt;4&lt;/font&gt;&lt;/h2&gt;" style="rounded=0;whiteSpace=wrap;html=1;horizontal=1;verticalAlign=middle;" parent="16" vertex="1">
                    <mxGeometry width="40" height="120" as="geometry"/>
                </mxCell>
                <mxCell id="20" value="NET" style="rounded=0;whiteSpace=wrap;html=1;fontFamily=Helvetica;fontSize=18;gradientColor=none;verticalAlign=middle;" parent="16" vertex="1">
                    <mxGeometry x="40" y="40" width="120" height="40" as="geometry"/>
                </mxCell>
                <mxCell id="27" value="" style="group" parent="1" vertex="1" connectable="0">
                    <mxGeometry x="170" y="440" width="160" height="80" as="geometry"/>
                </mxCell>
                <mxCell id="23" value="&lt;font style=&quot;font-size: 18px&quot;&gt;PHY&lt;/font&gt;" style="rounded=0;whiteSpace=wrap;html=1;" parent="27" vertex="1">
                    <mxGeometry x="40" y="40" width="40" height="40" as="geometry"/>
                </mxCell>
                <mxCell id="24" value="&lt;p style=&quot;line-height: 100%&quot;&gt;&lt;/p&gt;&lt;h2 style=&quot;line-height: 1.2 ; font-size: 16px&quot;&gt;&lt;font style=&quot;font-size: 16px&quot;&gt;交&lt;/font&gt;换&lt;/h2&gt;&lt;h2 style=&quot;line-height: 1.2 ; font-size: 16px&quot;&gt;&lt;b&gt;1&lt;/b&gt;&lt;/h2&gt;&lt;p&gt;&lt;/p&gt;" style="rounded=0;whiteSpace=wrap;html=1;horizontal=1;verticalAlign=middle;" parent="27" vertex="1">
                    <mxGeometry width="40" height="80" as="geometry"/>
                </mxCell>
                <mxCell id="25" value="NET" style="rounded=0;whiteSpace=wrap;html=1;fontFamily=Helvetica;fontSize=18;gradientColor=none;verticalAlign=middle;" parent="27" vertex="1">
                    <mxGeometry x="40" width="120" height="40" as="geometry"/>
                </mxCell>
                <mxCell id="26" value="&lt;font style=&quot;font-size: 18px&quot;&gt;PHY&lt;/font&gt;" style="rounded=0;whiteSpace=wrap;html=1;" parent="27" vertex="1">
                    <mxGeometry x="120" y="40" width="40" height="40" as="geometry"/>
                </mxCell>
                <mxCell id="42" value="&lt;font style=&quot;font-size: 18px&quot;&gt;PHY&lt;/font&gt;" style="rounded=0;whiteSpace=wrap;html=1;" parent="27" vertex="1">
                    <mxGeometry x="80" y="40" width="40" height="40" as="geometry"/>
                </mxCell>
                <mxCell id="28" value="" style="group" parent="1" vertex="1" connectable="0">
                    <mxGeometry x="550" y="440" width="160" height="80" as="geometry"/>
                </mxCell>
                <mxCell id="29" value="&lt;font style=&quot;font-size: 18px&quot;&gt;PHY&lt;/font&gt;" style="rounded=0;whiteSpace=wrap;html=1;" parent="28" vertex="1">
                    <mxGeometry x="80" y="40" width="40" height="40" as="geometry"/>
                </mxCell>
                <mxCell id="30" value="&lt;p style=&quot;line-height: 100%&quot;&gt;&lt;/p&gt;&lt;h2 style=&quot;line-height: 1.2 ; font-size: 16px&quot;&gt;&lt;font style=&quot;font-size: 16px&quot;&gt;交&lt;/font&gt;换&lt;/h2&gt;&lt;h2 style=&quot;line-height: 1.2 ; font-size: 16px&quot;&gt;2&lt;/h2&gt;&lt;p&gt;&lt;/p&gt;" style="rounded=0;whiteSpace=wrap;html=1;horizontal=1;verticalAlign=middle;" parent="28" vertex="1">
                    <mxGeometry width="40" height="80" as="geometry"/>
                </mxCell>
                <mxCell id="31" value="NET" style="rounded=0;whiteSpace=wrap;html=1;fontFamily=Helvetica;fontSize=18;gradientColor=none;verticalAlign=middle;" parent="28" vertex="1">
                    <mxGeometry x="40" width="120" height="40" as="geometry"/>
                </mxCell>
                <mxCell id="32" value="&lt;font style=&quot;font-size: 18px&quot;&gt;PHY&lt;/font&gt;" style="rounded=0;whiteSpace=wrap;html=1;" parent="28" vertex="1">
                    <mxGeometry x="120" y="40" width="40" height="40" as="geometry"/>
                </mxCell>
                <mxCell id="46" value="&lt;font style=&quot;font-size: 18px&quot;&gt;PHY&lt;/font&gt;" style="rounded=0;whiteSpace=wrap;html=1;" parent="28" vertex="1">
                    <mxGeometry x="40" y="40" width="40" height="40" as="geometry"/>
                </mxCell>
                <mxCell id="33" value="" style="group" parent="1" vertex="1" connectable="0">
                    <mxGeometry x="360" y="320" width="160" height="80" as="geometry"/>
                </mxCell>
                <mxCell id="34" value="&lt;font style=&quot;font-size: 18px&quot;&gt;PHY&lt;/font&gt;" style="rounded=0;whiteSpace=wrap;html=1;" parent="33" vertex="1">
                    <mxGeometry x="40" y="40" width="60" height="40" as="geometry"/>
                </mxCell>
                <mxCell id="35" value="&lt;p style=&quot;line-height: 100%&quot;&gt;&lt;/p&gt;&lt;h2 style=&quot;line-height: 1.2 ; font-size: 16px&quot;&gt;路由&lt;/h2&gt;&lt;p&gt;&lt;/p&gt;" style="rounded=0;whiteSpace=wrap;html=1;horizontal=1;verticalAlign=middle;" parent="33" vertex="1">
                    <mxGeometry width="40" height="80" as="geometry"/>
                </mxCell>
                <mxCell id="36" value="NET" style="rounded=0;whiteSpace=wrap;html=1;fontFamily=Helvetica;fontSize=18;gradientColor=none;verticalAlign=middle;" parent="33" vertex="1">
                    <mxGeometry x="40" width="120" height="40" as="geometry"/>
                </mxCell>
                <mxCell id="37" value="&lt;font style=&quot;font-size: 18px&quot;&gt;PHY&lt;/font&gt;" style="rounded=0;whiteSpace=wrap;html=1;" parent="33" vertex="1">
                    <mxGeometry x="100" y="40" width="60" height="40" as="geometry"/>
                </mxCell>
                <mxCell id="38" style="edgeStyle=orthogonalEdgeStyle;rounded=0;orthogonalLoop=1;jettySize=auto;html=1;exitX=0.5;exitY=1;exitDx=0;exitDy=0;entryX=0.5;entryY=1;entryDx=0;entryDy=0;endArrow=none;endFill=0;" parent="1" source="23" target="lKYiRNZ8xfTI3IJfdv-n-29" edge="1">
                    <mxGeometry relative="1" as="geometry">
                        <Array as="points">
                            <mxPoint x="230" y="540"/>
                            <mxPoint x="250" y="540"/>
                            <mxPoint x="250" y="700"/>
                            <mxPoint x="180" y="700"/>
                        </Array>
                    </mxGeometry>
                </mxCell>
                <mxCell id="40" style="edgeStyle=orthogonalEdgeStyle;rounded=0;orthogonalLoop=1;jettySize=auto;html=1;exitX=0.5;exitY=1;exitDx=0;exitDy=0;entryX=0.5;entryY=1;entryDx=0;entryDy=0;endArrow=none;endFill=0;" parent="1" source="29" target="13" edge="1">
                    <mxGeometry relative="1" as="geometry">
                        <Array as="points">
                            <mxPoint x="650" y="700"/>
                            <mxPoint x="580" y="700"/>
                        </Array>
                    </mxGeometry>
                </mxCell>
                <mxCell id="41" style="edgeStyle=orthogonalEdgeStyle;rounded=0;orthogonalLoop=1;jettySize=auto;html=1;exitX=0.5;exitY=1;exitDx=0;exitDy=0;entryX=0.5;entryY=1;entryDx=0;entryDy=0;endArrow=none;endFill=0;" parent="1" source="32" target="18" edge="1">
                    <mxGeometry relative="1" as="geometry">
                        <Array as="points">
                            <mxPoint x="690" y="540"/>
                            <mxPoint x="670" y="540"/>
                            <mxPoint x="670" y="700"/>
                            <mxPoint x="780" y="700"/>
                        </Array>
                    </mxGeometry>
                </mxCell>
                <mxCell id="43" style="edgeStyle=orthogonalEdgeStyle;rounded=0;orthogonalLoop=1;jettySize=auto;html=1;exitX=0.5;exitY=1;exitDx=0;exitDy=0;entryX=0.5;entryY=1;entryDx=0;entryDy=0;endArrow=none;endFill=0;" parent="1" source="42" target="8" edge="1">
                    <mxGeometry relative="1" as="geometry"/>
                </mxCell>
                <mxCell id="44" style="edgeStyle=orthogonalEdgeStyle;rounded=0;orthogonalLoop=1;jettySize=auto;html=1;exitX=0.5;exitY=1;exitDx=0;exitDy=0;entryX=0.5;entryY=1;entryDx=0;entryDy=0;endArrow=none;endFill=0;" parent="1" source="34" target="26" edge="1">
                    <mxGeometry relative="1" as="geometry">
                        <Array as="points">
                            <mxPoint x="430" y="540"/>
                            <mxPoint x="310" y="540"/>
                        </Array>
                    </mxGeometry>
                </mxCell>
                <mxCell id="45" style="edgeStyle=orthogonalEdgeStyle;rounded=0;orthogonalLoop=1;jettySize=auto;html=1;exitX=0.5;exitY=1;exitDx=0;exitDy=0;endArrow=none;endFill=0;entryX=0.5;entryY=1;entryDx=0;entryDy=0;" parent="1" source="37" target="46" edge="1">
                    <mxGeometry relative="1" as="geometry">
                        <mxPoint x="510" y="530" as="targetPoint"/>
                        <Array as="points">
                            <mxPoint x="490" y="540"/>
                            <mxPoint x="610" y="540"/>
                        </Array>
                    </mxGeometry>
                </mxCell>
            </root>
        </mxGraphModel>
    </diagram>
</mxfile>